<?xml version="1.0" encoding="UTF-8" standalone="no"?>
<svg
   viewBox="0 0 999.99998 513.92104"
   width="1000"
   height="513.92102"
   version="1.1"
   id="svg136"
   sodipodi:docname="myPokertable.svg"
   inkscape:version="1.3.2 (091e20e, 2023-11-25, custom)"
   xmlns:inkscape="http://www.inkscape.org/namespaces/inkscape"
   xmlns:sodipodi="http://sodipodi.sourceforge.net/DTD/sodipodi-0.dtd"
   xmlns="http://www.w3.org/2000/svg"
   xmlns:svg="http://www.w3.org/2000/svg">
  <sodipodi:namedview
     id="namedview136"
     pagecolor="#505050"
     bordercolor="#eeeeee"
     borderopacity="1"
     inkscape:showpageshadow="0"
     inkscape:pageopacity="0"
     inkscape:pagecheckerboard="0"
     inkscape:deskcolor="#505050"
     showgrid="false"
     inkscape:zoom="5.6568543"
     inkscape:cx="408.53094"
     inkscape:cy="261.7179"
     inkscape:window-width="3840"
     inkscape:window-height="2054"
     inkscape:window-x="3829"
     inkscape:window-y="-11"
     inkscape:window-maximized="1"
     inkscape:current-layer="g144" />
  <desc
     id="desc1">Pokertable.DXF - scale = 1.000000, origin = (0.000000, 0.000000), method = file</desc>
  <defs
     id="defs4">
    <marker
       id="DistanceX"
       orient="auto"
       refX="0"
       refY="0"
       style="overflow:visible">
      <path
         d="M 3,-3 -3,3 M 0,-5 V 5"
         style="stroke:#000000;stroke-width:0.5"
         id="path1" />
    </marker>
    <pattern
       id="Hatch"
       patternUnits="userSpaceOnUse"
       width="8"
       height="8"
       x="0"
       y="0">
      <path
         d="M8 4 l-4,4"
         stroke="#000000"
         stroke-width="0.25"
         linecap="square"
         id="path2" />
      <path
         d="M6 2 l-4,4"
         stroke="#000000"
         stroke-width="0.25"
         linecap="square"
         id="path3" />
      <path
         d="M4 0 l-4,4"
         stroke="#000000"
         stroke-width="0.25"
         linecap="square"
         id="path4" />
    </pattern>
    <symbol
       id="*Model_Space" />
    <symbol
       id="*Paper_Space" />
    <symbol
       id="*Paper_Space0" />
  </defs>
  <g
     inkscape:groupmode="layer"
     inkscape:label="0"
     id="g144"
     transform="matrix(0.01837351,0,0,0.01837351,500.00002,236.32435)">
    <path
       style="fill:none;stroke:#000000;stroke-width:1;stroke-linecap:round;stroke-dasharray:none;stroke-opacity:1"
       d="M -13228.3,13595 H 13228.3"
       id="path5" />
    <path
       style="fill:none;stroke:#000000;stroke-width:1;stroke-linecap:round;stroke-dasharray:none;stroke-opacity:1"
       d="M 13228.3,-11349.9 H -13228.3"
       id="path6" />
    <path
       style="fill:none;stroke:#000000;stroke-width:1;stroke-linecap:round;stroke-dasharray:none;stroke-opacity:1"
       d="M -13228.3,15106.8 H 13228.3"
       id="path7" />
    <path
       style="fill:none;stroke:#000000;stroke-width:1;stroke-linecap:round;stroke-dasharray:none;stroke-opacity:1"
       d="M 13228.3,-12861.7 H -13228.3"
       id="path8" />
    <path
       style="fill:none;stroke:#000000;stroke-width:1;stroke-linecap:round;stroke-dasharray:none;stroke-opacity:1"
       d="M 13228.3,-5302.68 H -13228.3"
       id="path9" />
    <path
       style="fill:none;stroke:#000000;stroke-width:1;stroke-linecap:round;stroke-dasharray:none;stroke-opacity:1"
       d="M -13228.3,7547.72 H 13228.3"
       id="path10" />
    <path
       style="fill:none;stroke:#000000;stroke-width:1;stroke-linecap:round;stroke-dasharray:none;stroke-opacity:1"
       d="m -12566.9,-7192.44 h 1138"
       id="path11" />
    <path
       style="fill:none;stroke:#000000;stroke-width:1;stroke-linecap:round;stroke-dasharray:none;stroke-opacity:1"
       d="M -11239.9,-7381.42 V -9271.18"
       id="path12" />
    <path
       style="fill:none;stroke:#000000;stroke-width:1;stroke-linecap:round;stroke-dasharray:none;stroke-opacity:1"
       d="m -11428.9,-9460.16 h -1138"
       id="path13" />
    <path
       style="fill:none;stroke:#000000;stroke-width:1;stroke-linecap:round;stroke-dasharray:none;stroke-opacity:1"
       d="m -12755.9,-9271.18 v 1889.76"
       id="path14" />
    <path
       style="fill:none;stroke:#000000;stroke-width:1;stroke-linecap:round;stroke-dasharray:none;stroke-opacity:1"
       d="m -15216.8,-9271.18 v 1889.76"
       id="path15" />
    <path
       style="fill:none;stroke:#000000;stroke-width:1;stroke-linecap:round;stroke-dasharray:none;stroke-opacity:1"
       d="m -15027.8,-7192.44 h 1138"
       id="path16" />
    <path
       style="fill:none;stroke:#000000;stroke-width:1;stroke-linecap:round;stroke-dasharray:none;stroke-opacity:1"
       d="M -13700.8,-7381.42 V -9271.18"
       id="path17" />
    <path
       style="fill:none;stroke:#000000;stroke-width:1;stroke-linecap:round;stroke-dasharray:none;stroke-opacity:1"
       d="m -13889.8,-9460.16 h -1138"
       id="path18" />
    <path
       style="fill:none;stroke:#000000;stroke-width:1;stroke-linecap:round;stroke-dasharray:none;stroke-opacity:1"
       d="M -21543.3,461.102 V -676.932"
       id="path19" />
    <path
       style="fill:none;stroke:#000000;stroke-width:1;stroke-linecap:round;stroke-dasharray:none;stroke-opacity:1"
       d="M -21732.3,-865.909 H -23622"
       id="path20" />
    <path
       style="fill:none;stroke:#000000;stroke-width:1;stroke-linecap:round;stroke-dasharray:none;stroke-opacity:1"
       d="M -23811,-676.932 V 461.102"
       id="path21" />
    <path
       style="fill:none;stroke:#000000;stroke-width:1;stroke-linecap:round;stroke-dasharray:none;stroke-opacity:1"
       d="m -23622,650.079 h 1889.7"
       id="path22" />
    <path
       style="fill:none;stroke:#000000;stroke-width:1;stroke-linecap:round;stroke-dasharray:none;stroke-opacity:1"
       d="M -21543.3,2921.97 V 1783.94"
       id="path23" />
    <path
       style="fill:none;stroke:#000000;stroke-width:1;stroke-linecap:round;stroke-dasharray:none;stroke-opacity:1"
       d="M -21732.3,1594.96 H -23622"
       id="path24" />
    <path
       style="fill:none;stroke:#000000;stroke-width:1;stroke-linecap:round;stroke-dasharray:none;stroke-opacity:1"
       d="M -23811,1783.94 V 2921.97"
       id="path25" />
    <path
       style="fill:none;stroke:#000000;stroke-width:1;stroke-linecap:round;stroke-dasharray:none;stroke-opacity:1"
       d="m -23622,3110.95 h 1889.7"
       id="path26" />
    <path
       style="fill:none;stroke:#000000;stroke-width:1;stroke-linecap:round;stroke-dasharray:none;stroke-opacity:1"
       d="M 1799.45,9437.48 H 661.417"
       id="path27" />
    <path
       style="fill:none;stroke:#000000;stroke-width:1;stroke-linecap:round;stroke-dasharray:none;stroke-opacity:1"
       d="M 472.441,9626.46 V 11516.2"
       id="path28" />
    <path
       style="fill:none;stroke:#000000;stroke-width:1;stroke-linecap:round;stroke-dasharray:none;stroke-opacity:1"
       d="M 661.417,11705.2 H 1799.45"
       id="path29" />
    <path
       style="fill:none;stroke:#000000;stroke-width:1;stroke-linecap:round;stroke-dasharray:none;stroke-opacity:1"
       d="M 1988.43,11516.2 V 9626.46"
       id="path30" />
    <path
       style="fill:none;stroke:#000000;stroke-width:1;stroke-linecap:round;stroke-dasharray:none;stroke-opacity:1"
       d="M -661.417,9437.48 H -1799.45"
       id="path31" />
    <path
       style="fill:none;stroke:#000000;stroke-width:1;stroke-linecap:round;stroke-dasharray:none;stroke-opacity:1"
       d="M -1988.43,9626.46 V 11516.2"
       id="path32" />
    <path
       style="fill:none;stroke:#000000;stroke-width:1;stroke-linecap:round;stroke-dasharray:none;stroke-opacity:1"
       d="M -1799.45,11705.2 H -661.417"
       id="path33" />
    <path
       style="fill:none;stroke:#000000;stroke-width:1;stroke-linecap:round;stroke-dasharray:none;stroke-opacity:1"
       d="M -472.441,11516.2 V 9626.46"
       id="path34" />
    <path
       style="fill:none;stroke:#000000;stroke-width:1;stroke-linecap:round;stroke-dasharray:none;stroke-opacity:1"
       d="M -12755.9,9626.46 V 11516.2"
       id="path35" />
    <path
       style="fill:none;stroke:#000000;stroke-width:1;stroke-linecap:round;stroke-dasharray:none;stroke-opacity:1"
       d="m -12566.9,11705.2 h 1138"
       id="path36" />
    <path
       style="fill:none;stroke:#000000;stroke-width:1;stroke-linecap:round;stroke-dasharray:none;stroke-opacity:1"
       d="M -11239.9,11516.2 V 9626.46"
       id="path37" />
    <path
       style="fill:none;stroke:#000000;stroke-width:1;stroke-linecap:round;stroke-dasharray:none;stroke-opacity:1"
       d="m -11428.9,9437.48 h -1138"
       id="path38" />
    <path
       style="fill:none;stroke:#000000;stroke-width:1;stroke-linecap:round;stroke-dasharray:none;stroke-opacity:1"
       d="M 12755.9,-7381.42 V -9271.18"
       id="path39" />
    <path
       style="fill:none;stroke:#000000;stroke-width:1;stroke-linecap:round;stroke-dasharray:none;stroke-opacity:1"
       d="m 12566.9,-9460.16 h -1138"
       id="path40" />
    <path
       style="fill:none;stroke:#000000;stroke-width:1;stroke-linecap:round;stroke-dasharray:none;stroke-opacity:1"
       d="m 11239.9,-9271.18 v 1889.76"
       id="path41" />
    <path
       style="fill:none;stroke:#000000;stroke-width:1;stroke-linecap:round;stroke-dasharray:none;stroke-opacity:1"
       d="m 11428.9,-7192.44 h 1138"
       id="path42" />
    <path
       style="fill:none;stroke:#000000;stroke-width:1;stroke-linecap:round;stroke-dasharray:none;stroke-opacity:1"
       d="m -15027.8,11705.2 h 1138"
       id="path43" />
    <path
       style="fill:none;stroke:#000000;stroke-width:1;stroke-linecap:round;stroke-dasharray:none;stroke-opacity:1"
       d="M -13700.8,11516.2 V 9626.46"
       id="path44" />
    <path
       style="fill:none;stroke:#000000;stroke-width:1;stroke-linecap:round;stroke-dasharray:none;stroke-opacity:1"
       d="m -13889.8,9437.48 h -1138"
       id="path45" />
    <path
       style="fill:none;stroke:#000000;stroke-width:1;stroke-linecap:round;stroke-dasharray:none;stroke-opacity:1"
       d="M -15216.8,9626.46 V 11516.2"
       id="path46" />
    <path
       style="fill:none;stroke:#000000;stroke-width:1;stroke-linecap:round;stroke-dasharray:none;stroke-opacity:1"
       d="M -472.441,-7381.42 V -9271.18"
       id="path47" />
    <path
       style="fill:none;stroke:#000000;stroke-width:1;stroke-linecap:round;stroke-dasharray:none;stroke-opacity:1"
       d="M -661.417,-9460.16 H -1799.45"
       id="path48" />
    <path
       style="fill:none;stroke:#000000;stroke-width:1;stroke-linecap:round;stroke-dasharray:none;stroke-opacity:1"
       d="m -1988.43,-9271.18 v 1889.76"
       id="path49" />
    <path
       style="fill:none;stroke:#000000;stroke-width:1;stroke-linecap:round;stroke-dasharray:none;stroke-opacity:1"
       d="M -1799.45,-7192.44 H -661.417"
       id="path50" />
    <path
       style="fill:none;stroke:#000000;stroke-width:1;stroke-linecap:round;stroke-dasharray:none;stroke-opacity:1"
       d="M 1988.43,-7381.42 V -9271.18"
       id="path51" />
    <path
       style="fill:none;stroke:#000000;stroke-width:1;stroke-linecap:round;stroke-dasharray:none;stroke-opacity:1"
       d="M 1799.45,-9460.16 H 661.417"
       id="path52" />
    <path
       style="fill:none;stroke:#000000;stroke-width:1;stroke-linecap:round;stroke-dasharray:none;stroke-opacity:1"
       d="M 661.417,-7192.44 H 1799.45"
       id="path53" />
    <path
       style="fill:none;stroke:#000000;stroke-width:1;stroke-linecap:round;stroke-dasharray:none;stroke-opacity:1"
       d="m 15027.8,-9460.16 h -1138"
       id="path54" />
    <path
       style="fill:none;stroke:#000000;stroke-width:1;stroke-linecap:round;stroke-dasharray:none;stroke-opacity:1"
       d="m 13700.8,-9271.18 v 1889.76"
       id="path55" />
    <path
       style="fill:none;stroke:#000000;stroke-width:1;stroke-linecap:round;stroke-dasharray:none;stroke-opacity:1"
       d="m 13889.8,-7192.44 h 1138"
       id="path56" />
    <path
       style="fill:none;stroke:#000000;stroke-width:1;stroke-linecap:round;stroke-dasharray:none;stroke-opacity:1"
       d="M 15216.8,-7381.42 V -9271.18"
       id="path57" />
    <path
       style="fill:none;stroke:#000000;stroke-width:1;stroke-linecap:round;stroke-dasharray:none;stroke-opacity:1"
       d="M 21732.3,650.079 H 23622"
       id="path58" />
    <path
       style="fill:none;stroke:#000000;stroke-width:1;stroke-linecap:round;stroke-dasharray:none;stroke-opacity:1"
       d="M 23811,461.102 V -676.932"
       id="path59" />
    <path
       style="fill:none;stroke:#000000;stroke-width:1;stroke-linecap:round;stroke-dasharray:none;stroke-opacity:1"
       d="M 23622,-865.909 H 21732.3"
       id="path60" />
    <path
       style="fill:none;stroke:#000000;stroke-width:1;stroke-linecap:round;stroke-dasharray:none;stroke-opacity:1"
       d="M 21543.3,-676.932 V 461.102"
       id="path61" />
    <path
       style="fill:none;stroke:#000000;stroke-width:1;stroke-linecap:round;stroke-dasharray:none;stroke-opacity:1"
       d="M 21732.3,3110.95 H 23622"
       id="path62" />
    <path
       style="fill:none;stroke:#000000;stroke-width:1;stroke-linecap:round;stroke-dasharray:none;stroke-opacity:1"
       d="M 23811,2921.97 V 1783.94"
       id="path63" />
    <path
       style="fill:none;stroke:#000000;stroke-width:1;stroke-linecap:round;stroke-dasharray:none;stroke-opacity:1"
       d="M 23622,1594.96 H 21732.3"
       id="path64" />
    <path
       style="fill:none;stroke:#000000;stroke-width:1;stroke-linecap:round;stroke-dasharray:none;stroke-opacity:1"
       d="M 21543.3,1783.94 V 2921.97"
       id="path65" />
    <path
       style="fill:none;stroke:#000000;stroke-width:1;stroke-linecap:round;stroke-dasharray:none;stroke-opacity:1"
       d="M 15216.8,11516.2 V 9626.46"
       id="path66" />
    <path
       style="fill:none;stroke:#000000;stroke-width:1;stroke-linecap:round;stroke-dasharray:none;stroke-opacity:1"
       d="m 15027.8,9437.48 h -1138"
       id="path67" />
    <path
       style="fill:none;stroke:#000000;stroke-width:1;stroke-linecap:round;stroke-dasharray:none;stroke-opacity:1"
       d="M 13700.8,9626.46 V 11516.2"
       id="path68" />
    <path
       style="fill:none;stroke:#000000;stroke-width:1;stroke-linecap:round;stroke-dasharray:none;stroke-opacity:1"
       d="m 13889.8,11705.2 h 1138"
       id="path69" />
    <path
       style="fill:none;stroke:#000000;stroke-width:1;stroke-linecap:round;stroke-dasharray:none;stroke-opacity:1"
       d="m 12566.9,9437.48 h -1138"
       id="path70" />
    <path
       style="fill:none;stroke:#000000;stroke-width:1;stroke-linecap:round;stroke-dasharray:none;stroke-opacity:1"
       d="M 11239.9,9626.46 V 11516.2"
       id="path71" />
    <path
       style="fill:none;stroke:#000000;stroke-width:1;stroke-linecap:round;stroke-dasharray:none;stroke-opacity:1"
       d="m 11428.9,11705.2 h 1138"
       id="path72" />
    <path
       style="fill:none;stroke:#000000;stroke-width:1;stroke-linecap:round;stroke-dasharray:none;stroke-opacity:1"
       d="M 12755.9,11516.2 V 9626.46"
       id="path73" />
    <path
       style="fill:none;stroke:#000000;stroke-width:1;stroke-linecap:round;stroke-dasharray:none;stroke-opacity:1"
       d="m 472.441,-9271.18 v 1889.76"
       id="path74" />
    <path
       d="m -13228.346,-11349.921 a 12472.441,12472.441 0 0 0 0,24944.882"
       style="fill:none;stroke:#000000;stroke-width:1;stroke-linecap:round;stroke-dasharray:none;stroke-opacity:1"
       id="path75" />
    <path
       d="m 13228.346,13594.961 a 12472.441,12472.441 0 0 0 0,-24944.882"
       style="fill:none;stroke:#000000;stroke-width:1;stroke-linecap:round;stroke-dasharray:none;stroke-opacity:1"
       id="path76" />
    <path
       d="m -13228.346,-12861.732 a 13984.252,13984.252 0 0 0 0,27968.504"
       style="fill:none;stroke:#000000;stroke-width:1;stroke-linecap:round;stroke-dasharray:none;stroke-opacity:1"
       id="path77" />
    <path
       d="m 13228.346,15106.772 a 13984.252,13984.252 0 0 0 0,-27968.504"
       style="fill:none;stroke:#000000;stroke-width:1;stroke-linecap:round;stroke-dasharray:none;stroke-opacity:1"
       id="path78" />
    <path
       d="m 13228.346,7547.7165 a 6425.1968,6425.1968 0 0 0 0,-12850.3937"
       style="fill:none;stroke:#000000;stroke-width:1;stroke-linecap:round;stroke-dasharray:none;stroke-opacity:1"
       id="path79" />
    <path
       d="m -13228.346,-5302.6772 a 6425.1968,6425.1968 0 0 0 0,12850.3937"
       style="fill:none;stroke:#000000;stroke-width:1;stroke-linecap:round;stroke-dasharray:none;stroke-opacity:1"
       id="path80" />
    <path
       d="m -11428.895,-7192.4409 a 188.97638,188.97638 0 0 0 188.977,-188.9764"
       style="fill:none;stroke:#000000;stroke-width:1;stroke-linecap:round;stroke-dasharray:none;stroke-opacity:1"
       id="path81" />
    <path
       d="m -11239.918,-9271.1811 a 188.97638,188.97638 0 0 0 -188.977,-188.9764"
       style="fill:none;stroke:#000000;stroke-width:1;stroke-linecap:round;stroke-dasharray:none;stroke-opacity:1"
       id="path82" />
    <path
       d="m -12566.929,-9460.1575 a 188.97638,188.97638 0 0 0 -188.977,188.9764"
       style="fill:none;stroke:#000000;stroke-width:1;stroke-linecap:round;stroke-dasharray:none;stroke-opacity:1"
       id="path83" />
    <path
       d="m -12755.906,-7381.4173 a 188.97638,188.97638 0 0 0 188.977,188.9764"
       style="fill:none;stroke:#000000;stroke-width:1;stroke-linecap:round;stroke-dasharray:none;stroke-opacity:1"
       id="path84" />
    <path
       d="m -15216.775,-7381.4173 a 188.97638,188.97638 0 0 0 188.977,188.9764"
       style="fill:none;stroke:#000000;stroke-width:1;stroke-linecap:round;stroke-dasharray:none;stroke-opacity:1"
       id="path85" />
    <path
       d="m -13889.764,-7192.4409 a 188.97638,188.97638 0 0 0 188.977,-188.9764"
       style="fill:none;stroke:#000000;stroke-width:1;stroke-linecap:round;stroke-dasharray:none;stroke-opacity:1"
       id="path86" />
    <path
       d="m -13700.787,-9271.1811 a 188.97638,188.97638 0 0 0 -188.977,-188.9764"
       style="fill:none;stroke:#000000;stroke-width:1;stroke-linecap:round;stroke-dasharray:none;stroke-opacity:1"
       id="path87" />
    <path
       d="m -15027.798,-9460.1575 a 188.97638,188.97638 0 0 0 -188.977,188.9764"
       style="fill:none;stroke:#000000;stroke-width:1;stroke-linecap:round;stroke-dasharray:none;stroke-opacity:1"
       id="path88" />
    <path
       d="m -21543.307,-676.93218 a 188.97638,188.97638 0 0 0 -188.976,-188.97638"
       style="fill:none;stroke:#000000;stroke-width:1;stroke-linecap:round;stroke-dasharray:none;stroke-opacity:1"
       id="path89" />
    <path
       d="m -23622.047,-865.90856 a 188.97638,188.97638 0 0 0 -188.977,188.97638"
       style="fill:none;stroke:#000000;stroke-width:1;stroke-linecap:round;stroke-dasharray:none;stroke-opacity:1"
       id="path90" />
    <path
       d="m -23811.024,461.10236 a 188.97638,188.97638 0 0 0 188.977,188.97638"
       style="fill:none;stroke:#000000;stroke-width:1;stroke-linecap:round;stroke-dasharray:none;stroke-opacity:1"
       id="path91" />
    <path
       d="m -21732.283,650.07874 a 188.97638,188.97638 0 0 0 188.976,-188.97638"
       style="fill:none;stroke:#000000;stroke-width:1;stroke-linecap:round;stroke-dasharray:none;stroke-opacity:1"
       id="path92" />
    <path
       d="m -21543.307,1783.937 a 188.97638,188.97638 0 0 0 -188.976,-188.9764"
       style="fill:none;stroke:#000000;stroke-width:1;stroke-linecap:round;stroke-dasharray:none;stroke-opacity:1"
       id="path93" />
    <path
       d="m -23622.047,1594.9606 a 188.97638,188.97638 0 0 0 -188.977,188.9764"
       style="fill:none;stroke:#000000;stroke-width:1;stroke-linecap:round;stroke-dasharray:none;stroke-opacity:1"
       id="path94" />
    <path
       d="m -23811.024,2921.9715 a 188.97638,188.97638 0 0 0 188.977,188.9764"
       style="fill:none;stroke:#000000;stroke-width:1;stroke-linecap:round;stroke-dasharray:none;stroke-opacity:1"
       id="path95" />
    <path
       d="m -21732.283,3110.9479 a 188.97638,188.97638 0 0 0 188.976,-188.9764"
       style="fill:none;stroke:#000000;stroke-width:1;stroke-linecap:round;stroke-dasharray:none;stroke-opacity:1"
       id="path96" />
    <path
       d="M 661.41732,9437.4803 A 188.97638,188.97638 0 0 0 472.44094,9626.4567"
       style="fill:none;stroke:#000000;stroke-width:1;stroke-linecap:round;stroke-dasharray:none;stroke-opacity:1"
       id="path97" />
    <path
       d="m 472.44094,11516.22 a 188.97638,188.97638 0 0 0 188.97638,188.977"
       style="fill:none;stroke:#000000;stroke-width:1;stroke-linecap:round;stroke-dasharray:none;stroke-opacity:1"
       id="path98" />
    <path
       d="m 1799.4519,11705.197 a 188.97638,188.97638 0 0 0 188.9763,-188.977"
       style="fill:none;stroke:#000000;stroke-width:1;stroke-linecap:round;stroke-dasharray:none;stroke-opacity:1"
       id="path99" />
    <path
       d="M 1988.4282,9626.4567 A 188.97638,188.97638 0 0 0 1799.4519,9437.4803"
       style="fill:none;stroke:#000000;stroke-width:1;stroke-linecap:round;stroke-dasharray:none;stroke-opacity:1"
       id="path100" />
    <path
       d="m -1799.4519,9437.4803 a 188.97638,188.97638 0 0 0 -188.9763,188.9764"
       style="fill:none;stroke:#000000;stroke-width:1;stroke-linecap:round;stroke-dasharray:none;stroke-opacity:1"
       id="path101" />
    <path
       d="m -1988.4282,11516.22 a 188.97638,188.97638 0 0 0 188.9763,188.977"
       style="fill:none;stroke:#000000;stroke-width:1;stroke-linecap:round;stroke-dasharray:none;stroke-opacity:1"
       id="path102" />
    <path
       d="m -661.41732,11705.197 a 188.97638,188.97638 0 0 0 188.97638,-188.977"
       style="fill:none;stroke:#000000;stroke-width:1;stroke-linecap:round;stroke-dasharray:none;stroke-opacity:1"
       id="path103" />
    <path
       d="M -472.44094,9626.4567 A 188.97638,188.97638 0 0 0 -661.41732,9437.4803"
       style="fill:none;stroke:#000000;stroke-width:1;stroke-linecap:round;stroke-dasharray:none;stroke-opacity:1"
       id="path104" />
    <path
       d="m -12755.906,11516.22 a 188.97638,188.97638 0 0 0 188.977,188.977"
       style="fill:none;stroke:#000000;stroke-width:1;stroke-linecap:round;stroke-dasharray:none;stroke-opacity:1"
       id="path105" />
    <path
       d="m -11428.895,11705.197 a 188.97638,188.97638 0 0 0 188.977,-188.977"
       style="fill:none;stroke:#000000;stroke-width:1;stroke-linecap:round;stroke-dasharray:none;stroke-opacity:1"
       id="path106" />
    <path
       d="m -11239.918,9626.4567 a 188.97638,188.97638 0 0 0 -188.977,-188.9764"
       style="fill:none;stroke:#000000;stroke-width:1;stroke-linecap:round;stroke-dasharray:none;stroke-opacity:1"
       id="path107" />
    <path
       d="m -12566.929,9437.4803 a 188.97638,188.97638 0 0 0 -188.977,188.9764"
       style="fill:none;stroke:#000000;stroke-width:1;stroke-linecap:round;stroke-dasharray:none;stroke-opacity:1"
       id="path108" />
    <path
       d="m 12755.906,-9271.1811 a 188.97638,188.97638 0 0 0 -188.977,-188.9764"
       style="fill:none;stroke:#000000;stroke-width:1;stroke-linecap:round;stroke-dasharray:none;stroke-opacity:1"
       id="path109" />
    <path
       d="m 11428.895,-9460.1575 a 188.97638,188.97638 0 0 0 -188.977,188.9764"
       style="fill:none;stroke:#000000;stroke-width:1;stroke-linecap:round;stroke-dasharray:none;stroke-opacity:1"
       id="path110" />
    <path
       d="m 11239.918,-7381.4173 a 188.97638,188.97638 0 0 0 188.977,188.9764"
       style="fill:none;stroke:#000000;stroke-width:1;stroke-linecap:round;stroke-dasharray:none;stroke-opacity:1"
       id="path111" />
    <path
       d="m 12566.929,-7192.4409 a 188.97638,188.97638 0 0 0 188.977,-188.9764"
       style="fill:none;stroke:#000000;stroke-width:1;stroke-linecap:round;stroke-dasharray:none;stroke-opacity:1"
       id="path112" />
    <path
       d="m -13889.764,11705.197 a 188.97638,188.97638 0 0 0 188.977,-188.977"
       style="fill:none;stroke:#000000;stroke-width:1;stroke-linecap:round;stroke-dasharray:none;stroke-opacity:1"
       id="path113" />
    <path
       d="m -13700.787,9626.4567 a 188.97638,188.97638 0 0 0 -188.977,-188.9764"
       style="fill:none;stroke:#000000;stroke-width:1;stroke-linecap:round;stroke-dasharray:none;stroke-opacity:1"
       id="path114" />
    <path
       d="m -15027.798,9437.4803 a 188.97638,188.97638 0 0 0 -188.977,188.9764"
       style="fill:none;stroke:#000000;stroke-width:1;stroke-linecap:round;stroke-dasharray:none;stroke-opacity:1"
       id="path115" />
    <path
       d="m -15216.775,11516.22 a 188.97638,188.97638 0 0 0 188.977,188.977"
       style="fill:none;stroke:#000000;stroke-width:1;stroke-linecap:round;stroke-dasharray:none;stroke-opacity:1"
       id="path116" />
    <path
       d="m -472.44094,-9271.1811 a 188.97638,188.97638 0 0 0 -188.97638,-188.9764"
       style="fill:none;stroke:#000000;stroke-width:1;stroke-linecap:round;stroke-dasharray:none;stroke-opacity:1"
       id="path117" />
    <path
       d="m -1799.4519,-9460.1575 a 188.97638,188.97638 0 0 0 -188.9763,188.9764"
       style="fill:none;stroke:#000000;stroke-width:1;stroke-linecap:round;stroke-dasharray:none;stroke-opacity:1"
       id="path118" />
    <path
       d="m -1988.4282,-7381.4173 a 188.97638,188.97638 0 0 0 188.9763,188.9764"
       style="fill:none;stroke:#000000;stroke-width:1;stroke-linecap:round;stroke-dasharray:none;stroke-opacity:1"
       id="path119" />
    <path
       d="m -661.41732,-7192.4409 a 188.97638,188.97638 0 0 0 188.97638,-188.9764"
       style="fill:none;stroke:#000000;stroke-width:1;stroke-linecap:round;stroke-dasharray:none;stroke-opacity:1"
       id="path120" />
    <path
       d="m 1988.4282,-9271.1811 a 188.97638,188.97638 0 0 0 -188.9763,-188.9764"
       style="fill:none;stroke:#000000;stroke-width:1;stroke-linecap:round;stroke-dasharray:none;stroke-opacity:1"
       id="path121" />
    <path
       d="m 661.41732,-9460.1575 a 188.97638,188.97638 0 0 0 -188.97638,188.9764"
       style="fill:none;stroke:#000000;stroke-width:1;stroke-linecap:round;stroke-dasharray:none;stroke-opacity:1"
       id="path122" />
    <path
       d="m 472.44094,-7381.4173 a 188.97638,188.97638 0 0 0 188.97638,188.9764"
       style="fill:none;stroke:#000000;stroke-width:1;stroke-linecap:round;stroke-dasharray:none;stroke-opacity:1"
       id="path123" />
    <path
       d="m 1799.4519,-7192.4409 a 188.97638,188.97638 0 0 0 188.9763,-188.9764"
       style="fill:none;stroke:#000000;stroke-width:1;stroke-linecap:round;stroke-dasharray:none;stroke-opacity:1"
       id="path124" />
    <path
       d="m 13889.764,-9460.1575 a 188.97638,188.97638 0 0 0 -188.977,188.9764"
       style="fill:none;stroke:#000000;stroke-width:1;stroke-linecap:round;stroke-dasharray:none;stroke-opacity:1"
       id="path125" />
    <path
       d="m 13700.787,-7381.4173 a 188.97638,188.97638 0 0 0 188.977,188.9764"
       style="fill:none;stroke:#000000;stroke-width:1;stroke-linecap:round;stroke-dasharray:none;stroke-opacity:1"
       id="path126" />
    <path
       d="m 15027.798,-7192.4409 a 188.97638,188.97638 0 0 0 188.977,-188.9764"
       style="fill:none;stroke:#000000;stroke-width:1;stroke-linecap:round;stroke-dasharray:none;stroke-opacity:1"
       id="path127" />
    <path
       d="m 15216.775,-9271.1811 a 188.97638,188.97638 0 0 0 -188.977,-188.9764"
       style="fill:none;stroke:#000000;stroke-width:1;stroke-linecap:round;stroke-dasharray:none;stroke-opacity:1"
       id="path128" />
    <path
       d="m 23622.047,650.07874 a 188.97638,188.97638 0 0 0 188.977,-188.97638"
       style="fill:none;stroke:#000000;stroke-width:1;stroke-linecap:round;stroke-dasharray:none;stroke-opacity:1"
       id="path129" />
    <path
       d="m 23811.024,-676.93218 a 188.97638,188.97638 0 0 0 -188.977,-188.97638"
       style="fill:none;stroke:#000000;stroke-width:1;stroke-linecap:round;stroke-dasharray:none;stroke-opacity:1"
       id="path130" />
    <path
       d="m 21732.283,-865.90856 a 188.97638,188.97638 0 0 0 -188.976,188.97638"
       style="fill:none;stroke:#000000;stroke-width:1;stroke-linecap:round;stroke-dasharray:none;stroke-opacity:1"
       id="path131" />
    <path
       d="m 21543.307,461.10236 a 188.97638,188.97638 0 0 0 188.976,188.97638"
       style="fill:none;stroke:#000000;stroke-width:1;stroke-linecap:round;stroke-dasharray:none;stroke-opacity:1"
       id="path132" />
    <path
       d="m 23622.047,3110.9479 a 188.97638,188.97638 0 0 0 188.977,-188.9764"
       style="fill:none;stroke:#000000;stroke-width:1;stroke-linecap:round;stroke-dasharray:none;stroke-opacity:1"
       id="path133" />
    <path
       d="m 23811.024,1783.937 a 188.97638,188.97638 0 0 0 -188.977,-188.9764"
       style="fill:none;stroke:#000000;stroke-width:1;stroke-linecap:round;stroke-dasharray:none;stroke-opacity:1"
       id="path134" />
    <path
       d="m 21732.283,1594.9606 a 188.97638,188.97638 0 0 0 -188.976,188.9764"
       style="fill:none;stroke:#000000;stroke-width:1;stroke-linecap:round;stroke-dasharray:none;stroke-opacity:1"
       id="path135" />
    <path
       d="m 21543.307,2921.9715 a 188.97638,188.97638 0 0 0 188.976,188.9764"
       style="fill:none;stroke:#000000;stroke-width:1;stroke-linecap:round;stroke-dasharray:none;stroke-opacity:1"
       id="path136" />
    <path
       d="m 15216.775,9626.4567 a 188.97638,188.97638 0 0 0 -188.977,-188.9764"
       style="fill:none;stroke:#000000;stroke-width:1;stroke-linecap:round;stroke-dasharray:none;stroke-opacity:1"
       id="path137" />
    <path
       d="m 13889.764,9437.4803 a 188.97638,188.97638 0 0 0 -188.977,188.9764"
       style="fill:none;stroke:#000000;stroke-width:1;stroke-linecap:round;stroke-dasharray:none;stroke-opacity:1"
       id="path138" />
    <path
       d="m 13700.787,11516.22 a 188.97638,188.97638 0 0 0 188.977,188.977"
       style="fill:none;stroke:#000000;stroke-width:1;stroke-linecap:round;stroke-dasharray:none;stroke-opacity:1"
       id="path139" />
    <path
       d="m 15027.798,11705.197 a 188.97638,188.97638 0 0 0 188.977,-188.977"
       style="fill:none;stroke:#000000;stroke-width:1;stroke-linecap:round;stroke-dasharray:none;stroke-opacity:1"
       id="path140" />
    <path
       d="m 11428.895,9437.4803 a 188.97638,188.97638 0 0 0 -188.977,188.9764"
       style="fill:none;stroke:#000000;stroke-width:1;stroke-linecap:round;stroke-dasharray:none;stroke-opacity:1"
       id="path141" />
    <path
       d="m 11239.918,11516.22 a 188.97638,188.97638 0 0 0 188.977,188.977"
       style="fill:none;stroke:#000000;stroke-width:1;stroke-linecap:round;stroke-dasharray:none;stroke-opacity:1"
       id="path142" />
    <path
       d="m 12566.929,11705.197 a 188.97638,188.97638 0 0 0 188.977,-188.977"
       style="fill:none;stroke:#000000;stroke-width:1;stroke-linecap:round;stroke-dasharray:none;stroke-opacity:1"
       id="path143" />
    <path
       d="m 12755.906,9626.4567 a 188.97638,188.97638 0 0 0 -188.977,-188.9764"
       style="fill:none;stroke:#000000;stroke-width:1;stroke-linecap:round;stroke-dasharray:none;stroke-opacity:1"
       id="path144" />
  </g>
</svg>
